<?xml version="1.0" standalone="no"?>
<!DOCTYPE svg PUBLIC "-//W3C//DTD SVG 20010904//EN"
 "http://www.w3.org/TR/2001/REC-SVG-20010904/DTD/svg10.dtd">
<svg version="1.0" xmlns="http://www.w3.org/2000/svg"
 width="1280.000000pt" height="1280.000000pt" viewBox="0 0 1280.000000 1280.000000"
 preserveAspectRatio="xMidYMid meet">

<g transform="translate(0.000000,1280.000000) scale(0.100000,-0.100000)"
fill="#000000" stroke="none">
<path d="M5985 12480 c-69 -6 -192 -22 -330 -41 -38 -5 -116 -16 -173 -24 -57
-8 -107 -17 -111 -19 -4 -3 -39 -10 -77 -16 -117 -18 -415 -89 -599 -143 -121
-35 -404 -130 -440 -147 -11 -5 -49 -20 -85 -33 -227 -84 -616 -274 -875 -429
-593 -355 -1076 -761 -1555 -1307 -66 -76 -77 -90 -237 -298 -342 -447 -647
-1001 -843 -1528 -11 -27 -30 -79 -43 -115 -14 -36 -30 -83 -37 -105 -7 -22
-21 -65 -31 -95 -10 -30 -28 -91 -40 -135 -12 -44 -30 -106 -40 -138 -11 -31
-19 -66 -19 -76 0 -10 -6 -41 -14 -67 -45 -151 -109 -508 -142 -788 -8 -67
-18 -148 -23 -181 -12 -78 -12 -903 -1 -975 5 -30 16 -110 24 -178 41 -336 66
-476 146 -812 30 -125 40 -159 99 -362 44 -147 149 -434 211 -573 10 -22 30
-68 44 -102 68 -164 202 -420 335 -643 449 -754 1058 -1410 1771 -1906 1089
-758 2298 -1143 3595 -1144 1022 0 1982 238 2887 717 896 474 1689 1196 2253
2053 148 225 225 358 350 605 389 769 596 1533 656 2430 16 238 6 715 -20 980
-101 1003 -439 1950 -996 2795 -253 383 -436 608 -795 975 -161 164 -202 203
-305 290 -32 28 -82 70 -111 95 -187 163 -588 451 -778 560 -17 9 -74 42 -126
72 -174 101 -215 123 -380 203 -81 40 -397 177 -458 199 -20 7 -89 32 -152 55
-195 72 -429 141 -630 186 -63 14 -128 30 -145 35 -92 27 -591 103 -850 130
-94 10 -808 10 -910 0z m985 -400 c374 -34 741 -102 1060 -197 47 -14 107 -31
133 -39 26 -7 89 -27 140 -44 87 -30 118 -41 285 -106 175 -68 488 -218 657
-314 22 -13 60 -34 85 -48 99 -54 325 -199 470 -302 113 -80 270 -200 270
-206 0 -2 -375 -4 -833 -4 l-833 0 -35 72 c-23 50 -54 93 -100 139 -238 240
-637 190 -815 -103 -39 -64 -74 -188 -74 -262 1 -194 118 -380 296 -468 l84
-41 0 -614 0 -613 -3240 0 c-2267 0 -3240 3 -3240 11 0 29 186 348 329 564
129 194 174 253 196 259 11 3 638 6 1393 6 1299 0 1373 -1 1378 -17 43 -136
159 -275 275 -331 68 -34 178 -62 244 -62 157 0 331 87 423 212 73 100 98 168
108 293 18 232 -138 466 -358 539 -17 5 -18 52 -18 790 0 739 1 785 18 790 30
9 224 45 332 61 365 57 966 72 1370 35z m-2012 -916 l-3 -745 -68 -29 c-110
-46 -217 -145 -264 -242 l-28 -58 -1274 0 -1273 0 93 102 c420 456 845 804
1349 1103 190 112 434 241 563 295 40 17 80 35 90 41 9 5 52 23 95 39 42 17
86 34 97 39 11 5 54 21 95 36 41 15 90 33 108 41 18 8 40 14 48 14 9 0 30 6
47 14 36 16 295 95 315 95 10 1 12 -151 10 -745z m3067 -223 c152 -67 220
-243 154 -398 -26 -61 -91 -127 -152 -154 -72 -32 -182 -31 -249 0 -57 28
-122 90 -151 145 -31 60 -31 193 1 257 41 84 125 151 212 170 50 11 136 2 185
-20z m2526 -549 c316 -326 486 -535 722 -887 144 -215 327 -530 327 -564 0 -8
-449 -11 -1775 -11 l-1775 0 0 618 0 619 38 11 c103 31 227 145 284 260 l31
62 1022 0 1022 0 104 -108z m-5337 -202 c66 -25 126 -81 163 -152 24 -46 28
-65 28 -138 0 -98 -20 -152 -80 -218 -81 -90 -224 -125 -336 -83 -202 76 -274
324 -144 494 82 107 234 147 369 97z m-424 -2098 c173 -46 280 -105 443 -245
31 -27 57 -54 57 -59 0 -6 -44 -58 -97 -115 -54 -57 -132 -141 -174 -186 l-76
-81 -61 54 c-79 69 -170 125 -236 144 -287 84 -536 -52 -642 -349 -22 -62 -25
-286 -5 -354 27 -95 73 -174 140 -241 77 -78 145 -114 259 -138 168 -34 338
15 495 143 37 30 70 55 75 55 4 0 81 -74 171 -164 108 -108 162 -169 158 -179
-9 -23 -162 -154 -236 -202 -101 -65 -163 -93 -269 -123 -92 -25 -108 -27
-312 -26 -205 0 -219 1 -305 27 -191 58 -353 155 -478 286 -124 130 -206 275
-255 449 -25 90 -27 111 -27 282 0 174 2 191 28 280 58 192 140 334 270 464
150 151 309 238 527 287 118 26 436 21 550 -9z m3955 9 c177 -37 332 -120 452
-243 142 -144 217 -283 269 -493 31 -128 50 -338 38 -425 l-9 -65 -708 -3
-709 -2 7 -33 c13 -63 65 -158 115 -211 57 -61 139 -108 225 -131 69 -18 221
-20 297 -4 77 16 203 78 281 138 61 47 70 51 85 39 95 -80 312 -273 312 -278
0 -14 -158 -159 -215 -197 -185 -125 -360 -173 -624 -173 -165 0 -272 18 -412
69 -334 122 -572 413 -634 775 -30 174 -14 400 41 564 118 358 418 622 771
682 96 16 322 11 418 -9z m-2055 -26 c58 -16 147 -45 199 -66 102 -42 241
-117 241 -131 0 -10 -175 -330 -201 -369 l-16 -23 -104 51 c-252 124 -466 163
-583 108 -75 -36 -100 -125 -50 -185 36 -43 176 -107 377 -174 335 -111 496
-216 577 -376 75 -148 66 -387 -22 -553 -164 -310 -674 -422 -1163 -255 -167
57 -421 203 -412 237 2 9 56 96 120 193 l117 178 67 -44 c242 -156 512 -228
691 -185 127 31 173 152 87 228 -49 43 -72 53 -225 101 -243 76 -374 122 -425
148 -165 83 -263 188 -316 338 -25 72 -30 240 -10 324 52 212 214 381 431 449
114 36 149 40 335 37 160 -3 192 -6 285 -31z m30 -2455 l0 -60 -65 0 -65 0 0
60 0 60 65 0 65 0 0 -60z m1310 0 l0 -60 -64 0 c-69 0 -74 4 -70 55 1 17 3 38
3 48 1 14 11 17 66 17 l65 0 0 -60z m-402 -67 l3 -73 69 0 70 0 0 -50 0 -50
-62 -1 c-35 -1 -66 -1 -70 0 -5 0 -8 -66 -8 -147 0 -182 3 -188 84 -179 l56 6
0 -48 c0 -41 -3 -49 -25 -59 -42 -19 -145 -15 -182 8 -54 32 -63 71 -63 257
l0 165 -32 -4 -33 -3 -3 53 -3 52 35 0 36 0 0 75 0 76 63 -3 62 -3 3 -72z
m-3607 -75 c50 -17 83 -45 110 -91 23 -40 24 -50 24 -242 l0 -200 -57 -3 c-60
-3 -65 1 -59 46 3 17 -6 15 -42 -12 -73 -54 -156 -60 -237 -18 -63 32 -90 74
-90 140 0 63 22 107 71 139 41 27 47 28 170 28 l128 -1 -6 26 c-20 83 -107
112 -228 75 -27 -8 -51 -12 -55 -10 -11 7 -34 85 -27 92 4 3 30 14 59 24 61
21 188 25 239 7z m581 -8 c87 -33 87 -33 59 -84 l-25 -44 -39 19 c-81 42 -187
34 -187 -14 0 -33 29 -56 99 -77 133 -40 185 -87 185 -168 0 -65 -28 -111 -84
-140 -79 -41 -244 -20 -325 41 -19 15 -19 15 8 55 l27 41 42 -24 c95 -53 201
-52 214 2 11 41 -7 56 -103 88 -50 17 -102 39 -117 48 -35 23 -66 75 -66 110
0 64 55 139 115 156 54 16 142 12 197 -9z m526 -10 c28 -12 52 -26 52 -31 0
-13 -41 -79 -50 -79 -5 0 -29 9 -55 20 -81 35 -165 23 -165 -24 0 -33 27 -53
111 -81 96 -33 147 -67 166 -113 29 -71 -7 -156 -83 -193 -79 -38 -240 -16
-318 43 -18 14 -18 16 8 56 l26 41 43 -25 c78 -43 185 -49 209 -12 15 24 8 56
-14 70 -13 7 -50 22 -83 32 -120 37 -168 75 -181 142 -13 69 27 132 106 171
39 20 166 10 228 -17z m589 2 c206 -106 204 -397 -4 -501 -187 -93 -413 41
-413 246 0 79 22 137 74 191 69 73 119 93 226 88 53 -2 88 -9 117 -24z m668 1
c82 -42 88 -69 31 -122 l-26 -24 -22 20 c-36 33 -63 43 -113 43 -60 0 -99 -21
-131 -71 -51 -81 -28 -192 49 -243 35 -23 50 -27 94 -23 45 3 63 11 119 52 10
7 23 0 49 -25 l35 -34 -28 -29 c-39 -42 -93 -66 -161 -73 -165 -18 -311 112
-311 276 0 120 84 233 200 271 45 15 171 4 215 -18z m807 17 c50 -14 97 -55
119 -105 16 -34 19 -68 19 -237 l0 -198 -60 0 c-60 0 -60 0 -60 30 l0 29 -48
-30 c-176 -109 -385 34 -301 207 30 64 96 94 204 94 44 0 95 -4 113 -9 28 -8
32 -7 32 9 0 92 -104 134 -234 95 -27 -8 -52 -12 -55 -9 -7 7 -31 87 -27 91 2
2 27 12 57 23 60 22 180 26 241 10z m1383 -19 c103 -48 159 -136 159 -251 1
-208 -230 -343 -420 -247 -107 54 -162 155 -151 275 19 196 229 310 412 223z
m697 -3 c67 -51 73 -77 73 -308 l0 -205 -60 0 -60 0 -5 185 c-3 119 -9 193
-17 206 -23 41 -102 55 -153 29 -53 -27 -60 -56 -60 -243 0 -167 0 -170 -22
-176 -30 -8 -72 -8 -92 0 -14 5 -16 39 -16 270 l0 264 65 0 65 0 0 -37 0 -37
28 26 c49 48 81 59 153 56 53 -3 73 -9 101 -30z m-2554 -245 l-3 -268 -60 0
-60 0 -3 268 -2 267 65 0 65 0 -2 -267z m1310 0 l-3 -268 -62 -3 -63 -3 0 271
0 270 65 0 65 0 -2 -267z m3702 -1276 c0 -29 -253 -513 -321 -615 -16 -24 -29
-45 -29 -48 0 -5 -192 -292 -250 -373 -222 -313 -588 -709 -910 -987 -288
-247 -633 -490 -920 -647 -30 -17 -66 -38 -80 -47 -26 -18 -226 -120 -320
-163 -105 -48 -245 -110 -292 -128 -27 -11 -72 -28 -100 -40 -76 -29 -158 -58
-198 -70 -19 -5 -51 -16 -70 -24 -19 -7 -69 -23 -110 -34 -41 -12 -104 -30
-140 -41 -152 -45 -220 -61 -475 -110 -260 -49 -384 -65 -720 -90 -156 -12
-558 -12 -705 0 -534 42 -787 86 -1275 222 -106 29 -440 145 -502 173 -17 8
-34 15 -38 15 -7 0 -28 9 -127 54 -31 14 -60 26 -63 26 -18 0 -352 171 -500
255 -471 269 -875 579 -1258 965 -155 156 -220 228 -391 433 l-48 57 945 0
945 0 617 -625 618 -625 732 0 733 0 7 -27 c12 -50 65 -131 111 -172 120 -106
289 -129 432 -60 80 39 143 103 185 188 30 61 32 73 32 166 0 92 -3 106 -31
165 -46 95 -93 143 -182 187 -73 36 -80 38 -177 38 -95 0 -105 -2 -169 -34
-78 -40 -154 -117 -182 -185 l-19 -46 -686 0 -686 0 -509 511 c-280 281 -511
512 -513 515 -2 2 860 4 1917 4 l1921 0 16 -57 c56 -194 208 -357 405 -437 89
-36 176 -49 294 -44 177 9 306 68 443 204 68 68 89 97 126 175 58 122 72 181
71 309 -1 188 -64 341 -199 476 -144 145 -275 199 -485 199 -175 0 -280 -34
-417 -136 -128 -95 -231 -265 -258 -421 l-6 -38 -3090 0 c-2133 0 -3097 3
-3110 11 -17 9 -103 134 -226 329 -74 118 -160 274 -238 431 -42 85 -83 166
-91 181 -8 14 -14 31 -14 37 0 8 1462 11 5290 11 4363 0 5290 -2 5290 -13z
m-2988 -627 c279 -86 412 -423 268 -675 -42 -73 -137 -160 -216 -197 -56 -26
-82 -32 -164 -36 -155 -7 -268 36 -367 141 -170 180 -176 445 -13 630 122 138
315 192 492 137z m-1784 -1599 c100 -70 94 -234 -10 -295 -103 -60 -227 -9
-259 106 -20 74 11 148 81 196 46 32 139 28 188 -7z"/>
<path d="M8383 7645 c-85 -24 -171 -91 -230 -180 -25 -38 -69 -150 -78 -198
l-7 -37 436 0 c240 0 436 3 436 8 0 4 -7 35 -15 70 -33 141 -120 259 -232 314
-56 27 -76 32 -161 35 -65 2 -114 -2 -149 -12z"/>
<path d="M3844 5180 c-28 -11 -54 -48 -54 -78 0 -12 11 -34 25 -47 41 -42 154
-32 197 17 38 44 37 98 -2 109 -36 10 -141 9 -166 -1z"/>
<path d="M5500 5358 c-58 -40 -75 -72 -75 -141 1 -72 20 -115 67 -149 45 -32
143 -33 185 -2 95 71 91 226 -7 291 -46 32 -124 32 -170 1z"/>
<path d="M7003 5170 c-28 -17 -33 -26 -33 -57 0 -21 4 -43 8 -49 25 -38 127
-46 179 -14 40 24 55 52 51 93 -4 37 -22 45 -113 46 -43 1 -69 -5 -92 -19z"/>
<path d="M8363 5360 c-61 -37 -89 -111 -72 -190 40 -183 299 -168 317 19 7 78
-27 144 -90 177 -39 20 -117 18 -155 -6z"/>
</g>
</svg>
